<?xml version="1.0" standalone="no"?><!DOCTYPE svg PUBLIC "-//W3C//DTD SVG 1.1//EN" "http://www.w3.org/Graphics/SVG/1.1/DTD/svg11.dtd"><svg t="1743666126958" class="icon" viewBox="0 0 1024 1024" version="1.1" xmlns="http://www.w3.org/2000/svg" p-id="2640" xmlns:xlink="http://www.w3.org/1999/xlink" width="128" height="128"><path d="M885.444923 383.448615c0-211.377231-171.598769-382.700308-383.291077-382.700307-211.692308 0-383.291077 171.323077-383.291077 382.700307a382.148923 382.148923 0 0 0 168.605539 317.046154s19.298462 12.8 13.469538 32.177231a40.723692 40.723692 0 0 0 43.441231 51.475692l191.645538-19.495384c3.702154-0.315077 7.364923-0.708923 11.027693-1.181539l107.756307-10.909538c14.848-1.496615 27.648-11.027692 33.437539-24.772923 4.253538-9.216 15.163077-18.038154 22.331077-23.158154l6.616615-4.332308 0.118154-0.078769a382.227692 382.227692 0 0 0 168.132923-316.770462zM433.073231 197.041231c-27.017846 3.465846-54.665846 20.007385-77.824 46.631384-22.882462 26.308923-38.596923 59.431385-43.047385 90.899693a33.988923 33.988923 0 0 1-67.347692-9.531077c6.301538-44.110769 27.805538-89.993846 59.076923-125.873231 34.107077-39.227077 76.957538-63.881846 120.595692-69.435077a33.949538 33.949538 0 0 1 8.546462 67.347692z m226.855384 606.089846l-310.390153 31.586461a40.763077 40.763077 0 1 0 8.270769 81.053539l310.429538-31.625846a40.723692 40.723692 0 1 0-8.270769-81.014154z m-264.467692 159.389538c-3.111385 0.433231-4.332308 1.851077-4.332308 4.292923 0 4.174769 3.820308 6.025846 4.647385 6.498462l0.196923 0.118154 81.092923 44.150154c13.863385 7.561846 36.352 7.561846 50.215385 0l138.436923-75.382154s5.277538-2.835692 4.253538-5.750154c-0.512-1.457231-2.087385-1.614769-3.584-1.457231l-270.926769 27.529846z" fill="#13227a" p-id="2641"></path></svg>