<?xml version="1.0" standalone="no"?><!DOCTYPE svg PUBLIC "-//W3C//DTD SVG 1.1//EN" "http://www.w3.org/Graphics/SVG/1.1/DTD/svg11.dtd"><svg t="1743581573700" class="icon" viewBox="0 0 1024 1024" version="1.1" xmlns="http://www.w3.org/2000/svg" p-id="2073" xmlns:xlink="http://www.w3.org/1999/xlink" width="128" height="128"><path d="M874.666667 106.666667H149.333333c-23.466667 0-42.666667 19.2-42.666666 42.666666v725.333334c0 23.466667 19.2 42.666667 42.666666 42.666666h725.333334c23.466667 0 42.666667-19.2 42.666666-42.666666V149.333333c0-23.466667-19.2-42.666667-42.666666-42.666666z m-21.333334 746.666666H170.666667v-149.333333h241.066666c17.066667 0 34.133333-8.533333 40.533334-25.6 10.666667-23.466667 32-38.4 59.733333-38.4s49.066667 17.066667 59.733333 38.4c6.4 14.933333 23.466667 25.6 40.533334 25.6H853.333333v149.333333zM622.933333 640c-21.333333-38.4-64-64-110.933333-64s-89.6 25.6-110.933333 64H170.666667V170.666667h682.666666v469.333333H622.933333z" p-id="2074" fill="#1296db"></path><path d="M352 746.666667h-64c-17.066667 0-32 14.933333-32 32s14.933333 32 32 32h64c17.066667 0 32-14.933333 32-32s-14.933333-32-32-32zM544 746.666667h-64c-17.066667 0-32 14.933333-32 32s14.933333 32 32 32h64c17.066667 0 32-14.933333 32-32s-14.933333-32-32-32zM672 810.666667h64c17.066667 0 32-14.933333 32-32s-14.933333-32-32-32h-64c-17.066667 0-32 14.933333-32 32s14.933333 32 32 32zM757.333333 352h-42.666666c-17.066667 0-34.133333 8.533333-42.666667 21.333333l-61.866667 85.333334c-2.133333 4.266667-6.4 4.266667-8.533333 4.266666-2.133333 0-6.4 0-8.533333-6.4L488.533333 277.333333c-14.933333-27.733333-46.933333-42.666667-78.933333-36.266666-19.2 4.266667-36.266667 14.933333-49.066667 32l-57.6 78.933333h-36.266666c-17.066667 0-32 14.933333-32 32s14.933333 32 32 32h42.666666c17.066667 0 34.133333-8.533333 42.666667-21.333333l61.866667-85.333334c2.133333-4.266667 6.4-4.266667 8.533333-4.266666 2.133333 0 6.4 0 8.533333 6.4l104.533334 183.466666c12.8 21.333333 36.266667 36.266667 61.866666 38.4h4.266667c23.466667 0 46.933333-10.666667 59.733333-32l57.6-81.066666h36.266667c17.066667 0 32-14.933333 32-32s-12.8-36.266667-29.866667-36.266667z" p-id="2075" fill="#1296db"></path></svg>